<mxfile host="app.diagrams.net" modified="2021-03-18T19:28:16.517Z" agent="5.0 (Windows NT 10.0; Win64; x64) AppleWebKit/537.36 (KHTML, like Gecko) Chrome/89.0.4389.90 Safari/537.36" etag="g_a_MRGVNp5yPQXzY6l6" version="14.4.9" type="github">
  <diagram id="kgpKYQtTHZ0yAKxKKP6v" name="Page-1">
    <mxGraphModel dx="1755" dy="788" grid="1" gridSize="10" guides="1" tooltips="1" connect="1" arrows="1" fold="1" page="1" pageScale="1" pageWidth="850" pageHeight="1100" math="0" shadow="0">
      <root>
        <mxCell id="0" />
        <mxCell id="1" parent="0" />
        <mxCell id="hUNG6CEszb41kodtaODO-1" value="Visitor" style="shape=umlActor;verticalLabelPosition=bottom;verticalAlign=top;html=1;" vertex="1" parent="1">
          <mxGeometry x="710" y="130" width="30" height="60" as="geometry" />
        </mxCell>
        <mxCell id="hUNG6CEszb41kodtaODO-2" value="User" style="shape=umlActor;verticalLabelPosition=bottom;verticalAlign=top;html=1;" vertex="1" parent="1">
          <mxGeometry x="820" y="130" width="30" height="60" as="geometry" />
        </mxCell>
        <mxCell id="hUNG6CEszb41kodtaODO-3" value="Commercial user" style="shape=umlActor;verticalLabelPosition=bottom;verticalAlign=top;html=1;" vertex="1" parent="1">
          <mxGeometry x="930" y="130" width="30" height="60" as="geometry" />
        </mxCell>
        <mxCell id="hUNG6CEszb41kodtaODO-4" value="Garbage collector" style="shape=umlActor;verticalLabelPosition=bottom;verticalAlign=top;html=1;" vertex="1" parent="1">
          <mxGeometry x="1040" y="130" width="30" height="60" as="geometry" />
        </mxCell>
        <mxCell id="hUNG6CEszb41kodtaODO-7" value="Information services" style="html=1;" vertex="1" parent="1">
          <mxGeometry x="-170" y="160" width="110" height="30" as="geometry" />
        </mxCell>
        <mxCell id="hUNG6CEszb41kodtaODO-8" value="Request system" style="html=1;" vertex="1" parent="1">
          <mxGeometry x="70" y="160" width="110" height="30" as="geometry" />
        </mxCell>
        <mxCell id="hUNG6CEszb41kodtaODO-9" value="Point system" style="html=1;" vertex="1" parent="1">
          <mxGeometry x="310" y="160" width="80" height="30" as="geometry" />
        </mxCell>
        <mxCell id="hUNG6CEszb41kodtaODO-10" value="Account management" style="html=1;" vertex="1" parent="1">
          <mxGeometry x="520" y="160" width="130" height="30" as="geometry" />
        </mxCell>
        <mxCell id="hUNG6CEszb41kodtaODO-11" value="" style="endArrow=none;dashed=1;html=1;entryX=0.5;entryY=1;entryDx=0;entryDy=0;" edge="1" parent="1" source="hUNG6CEszb41kodtaODO-51" target="hUNG6CEszb41kodtaODO-7">
          <mxGeometry width="50" height="50" relative="1" as="geometry">
            <mxPoint x="-115" y="530" as="sourcePoint" />
            <mxPoint x="-80" y="220" as="targetPoint" />
          </mxGeometry>
        </mxCell>
        <mxCell id="hUNG6CEszb41kodtaODO-12" value="" style="endArrow=none;dashed=1;html=1;entryX=0.5;entryY=1;entryDx=0;entryDy=0;" edge="1" parent="1" source="hUNG6CEszb41kodtaODO-53" target="hUNG6CEszb41kodtaODO-9">
          <mxGeometry width="50" height="50" relative="1" as="geometry">
            <mxPoint x="350" y="540" as="sourcePoint" />
            <mxPoint x="350" y="200" as="targetPoint" />
          </mxGeometry>
        </mxCell>
        <mxCell id="hUNG6CEszb41kodtaODO-13" value="" style="endArrow=none;dashed=1;html=1;entryX=0.5;entryY=1;entryDx=0;entryDy=0;" edge="1" parent="1" source="hUNG6CEszb41kodtaODO-52" target="hUNG6CEszb41kodtaODO-8">
          <mxGeometry width="50" height="50" relative="1" as="geometry">
            <mxPoint x="124.5" y="540" as="sourcePoint" />
            <mxPoint x="124.5" y="200" as="targetPoint" />
          </mxGeometry>
        </mxCell>
        <mxCell id="hUNG6CEszb41kodtaODO-14" value="" style="endArrow=none;dashed=1;html=1;entryX=0.5;entryY=1;entryDx=0;entryDy=0;" edge="1" parent="1" source="hUNG6CEszb41kodtaODO-20" target="hUNG6CEszb41kodtaODO-10">
          <mxGeometry width="50" height="50" relative="1" as="geometry">
            <mxPoint x="584.5" y="570" as="sourcePoint" />
            <mxPoint x="584.5" y="230" as="targetPoint" />
          </mxGeometry>
        </mxCell>
        <mxCell id="hUNG6CEszb41kodtaODO-15" value="" style="endArrow=none;dashed=1;html=1;" edge="1" parent="1" source="hUNG6CEszb41kodtaODO-38" target="hUNG6CEszb41kodtaODO-1">
          <mxGeometry width="50" height="50" relative="1" as="geometry">
            <mxPoint x="724" y="570" as="sourcePoint" />
            <mxPoint x="770" y="350" as="targetPoint" />
          </mxGeometry>
        </mxCell>
        <mxCell id="hUNG6CEszb41kodtaODO-16" value="" style="endArrow=none;dashed=1;html=1;" edge="1" parent="1" source="hUNG6CEszb41kodtaODO-40" target="hUNG6CEszb41kodtaODO-2">
          <mxGeometry width="50" height="50" relative="1" as="geometry">
            <mxPoint x="835" y="1092" as="sourcePoint" />
            <mxPoint x="835.4268292682927" y="200" as="targetPoint" />
          </mxGeometry>
        </mxCell>
        <mxCell id="hUNG6CEszb41kodtaODO-17" value="" style="endArrow=none;dashed=1;html=1;" edge="1" parent="1" source="hUNG6CEszb41kodtaODO-42" target="hUNG6CEszb41kodtaODO-3">
          <mxGeometry width="50" height="50" relative="1" as="geometry">
            <mxPoint x="945" y="1091" as="sourcePoint" />
            <mxPoint x="945.4268292682927" y="210" as="targetPoint" />
          </mxGeometry>
        </mxCell>
        <mxCell id="hUNG6CEszb41kodtaODO-18" value="" style="endArrow=none;dashed=1;html=1;" edge="1" parent="1" source="hUNG6CEszb41kodtaODO-46" target="hUNG6CEszb41kodtaODO-4">
          <mxGeometry width="50" height="50" relative="1" as="geometry">
            <mxPoint x="1055" y="1090" as="sourcePoint" />
            <mxPoint x="1055.4268292682927" y="210" as="targetPoint" />
          </mxGeometry>
        </mxCell>
        <mxCell id="hUNG6CEszb41kodtaODO-20" value="" style="rounded=0;whiteSpace=wrap;html=1;" vertex="1" parent="1">
          <mxGeometry x="575" y="240" width="20" height="130" as="geometry" />
        </mxCell>
        <mxCell id="hUNG6CEszb41kodtaODO-21" value="" style="endArrow=none;dashed=1;html=1;entryX=0.5;entryY=1;entryDx=0;entryDy=0;" edge="1" parent="1" target="hUNG6CEszb41kodtaODO-20">
          <mxGeometry width="50" height="50" relative="1" as="geometry">
            <mxPoint x="584.5" y="570" as="sourcePoint" />
            <mxPoint x="585" y="190" as="targetPoint" />
          </mxGeometry>
        </mxCell>
        <mxCell id="hUNG6CEszb41kodtaODO-19" value="" style="endArrow=classic;html=1;entryX=1;entryY=0;entryDx=0;entryDy=0;exitX=0;exitY=0;exitDx=0;exitDy=0;" edge="1" parent="1" source="hUNG6CEszb41kodtaODO-38" target="hUNG6CEszb41kodtaODO-20">
          <mxGeometry width="50" height="50" relative="1" as="geometry">
            <mxPoint x="670" y="200" as="sourcePoint" />
            <mxPoint x="660" y="260" as="targetPoint" />
          </mxGeometry>
        </mxCell>
        <mxCell id="hUNG6CEszb41kodtaODO-23" value="Create an account" style="edgeLabel;html=1;align=center;verticalAlign=middle;resizable=0;points=[];" vertex="1" connectable="0" parent="hUNG6CEszb41kodtaODO-19">
          <mxGeometry x="-0.2" y="-2" relative="1" as="geometry">
            <mxPoint x="-8" y="2" as="offset" />
          </mxGeometry>
        </mxCell>
        <mxCell id="hUNG6CEszb41kodtaODO-22" value="" style="endArrow=classic;html=1;exitX=0;exitY=1;exitDx=0;exitDy=0;" edge="1" parent="1" source="hUNG6CEszb41kodtaODO-38">
          <mxGeometry width="50" height="50" relative="1" as="geometry">
            <mxPoint x="720" y="285" as="sourcePoint" />
            <mxPoint x="594" y="290" as="targetPoint" />
          </mxGeometry>
        </mxCell>
        <mxCell id="hUNG6CEszb41kodtaODO-24" value="Sign in" style="edgeLabel;html=1;align=center;verticalAlign=middle;resizable=0;points=[];" vertex="1" connectable="0" parent="hUNG6CEszb41kodtaODO-22">
          <mxGeometry x="-0.376" relative="1" as="geometry">
            <mxPoint x="-21" as="offset" />
          </mxGeometry>
        </mxCell>
        <mxCell id="hUNG6CEszb41kodtaODO-31" style="edgeStyle=orthogonalEdgeStyle;rounded=0;orthogonalLoop=1;jettySize=auto;html=1;exitX=1;exitY=0.75;exitDx=0;exitDy=0;" edge="1" parent="1">
          <mxGeometry relative="1" as="geometry">
            <mxPoint x="580" y="850" as="targetPoint" />
            <mxPoint x="827.5" y="849.5" as="sourcePoint" />
            <Array as="points">
              <mxPoint x="622.5" y="850" />
            </Array>
          </mxGeometry>
        </mxCell>
        <mxCell id="hUNG6CEszb41kodtaODO-32" value="Delete account" style="edgeLabel;html=1;align=center;verticalAlign=middle;resizable=0;points=[];" vertex="1" connectable="0" parent="hUNG6CEszb41kodtaODO-31">
          <mxGeometry x="-0.2611" relative="1" as="geometry">
            <mxPoint x="-24" as="offset" />
          </mxGeometry>
        </mxCell>
        <mxCell id="hUNG6CEszb41kodtaODO-33" style="edgeStyle=orthogonalEdgeStyle;rounded=0;orthogonalLoop=1;jettySize=auto;html=1;" edge="1" parent="1">
          <mxGeometry relative="1" as="geometry">
            <mxPoint x="590" y="890.5" as="targetPoint" />
            <mxPoint x="950" y="891" as="sourcePoint" />
            <Array as="points">
              <mxPoint x="632.5" y="890.5" />
            </Array>
          </mxGeometry>
        </mxCell>
        <mxCell id="hUNG6CEszb41kodtaODO-34" value="Delete account" style="edgeLabel;html=1;align=center;verticalAlign=middle;resizable=0;points=[];" vertex="1" connectable="0" parent="hUNG6CEszb41kodtaODO-33">
          <mxGeometry x="-0.2611" relative="1" as="geometry">
            <mxPoint x="-24" as="offset" />
          </mxGeometry>
        </mxCell>
        <mxCell id="hUNG6CEszb41kodtaODO-38" value="" style="rounded=0;whiteSpace=wrap;html=1;" vertex="1" parent="1">
          <mxGeometry x="715" y="240" width="20" height="50" as="geometry" />
        </mxCell>
        <mxCell id="hUNG6CEszb41kodtaODO-39" value="" style="endArrow=none;dashed=1;html=1;" edge="1" parent="1" source="hUNG6CEszb41kodtaODO-48" target="hUNG6CEszb41kodtaODO-38">
          <mxGeometry width="50" height="50" relative="1" as="geometry">
            <mxPoint x="724" y="1090" as="sourcePoint" />
            <mxPoint x="724.9268292682927" y="190" as="targetPoint" />
          </mxGeometry>
        </mxCell>
        <mxCell id="hUNG6CEszb41kodtaODO-40" value="" style="rounded=0;whiteSpace=wrap;html=1;" vertex="1" parent="1">
          <mxGeometry x="825" y="300" width="20" height="470" as="geometry" />
        </mxCell>
        <mxCell id="hUNG6CEszb41kodtaODO-41" value="" style="endArrow=none;dashed=1;html=1;" edge="1" parent="1" target="hUNG6CEszb41kodtaODO-40">
          <mxGeometry width="50" height="50" relative="1" as="geometry">
            <mxPoint x="835" y="1092" as="sourcePoint" />
            <mxPoint x="835" y="190" as="targetPoint" />
          </mxGeometry>
        </mxCell>
        <mxCell id="hUNG6CEszb41kodtaODO-42" value="" style="rounded=0;whiteSpace=wrap;html=1;" vertex="1" parent="1">
          <mxGeometry x="935" y="330" width="20" height="470" as="geometry" />
        </mxCell>
        <mxCell id="hUNG6CEszb41kodtaODO-43" value="" style="endArrow=none;dashed=1;html=1;" edge="1" parent="1" target="hUNG6CEszb41kodtaODO-42">
          <mxGeometry width="50" height="50" relative="1" as="geometry">
            <mxPoint x="945" y="1091" as="sourcePoint" />
            <mxPoint x="945" y="190" as="targetPoint" />
          </mxGeometry>
        </mxCell>
        <mxCell id="hUNG6CEszb41kodtaODO-29" style="edgeStyle=orthogonalEdgeStyle;rounded=0;orthogonalLoop=1;jettySize=auto;html=1;exitX=1;exitY=0.75;exitDx=0;exitDy=0;entryX=0;entryY=0;entryDx=0;entryDy=0;" edge="1" parent="1" target="hUNG6CEszb41kodtaODO-42">
          <mxGeometry relative="1" as="geometry">
            <mxPoint x="930" y="330" as="targetPoint" />
            <mxPoint x="595" y="329.5" as="sourcePoint" />
            <Array as="points">
              <mxPoint x="770" y="330" />
            </Array>
          </mxGeometry>
        </mxCell>
        <mxCell id="hUNG6CEszb41kodtaODO-30" value="Credentials" style="edgeLabel;html=1;align=center;verticalAlign=middle;resizable=0;points=[];" vertex="1" connectable="0" parent="hUNG6CEszb41kodtaODO-29">
          <mxGeometry x="-0.2611" relative="1" as="geometry">
            <mxPoint x="38" y="1" as="offset" />
          </mxGeometry>
        </mxCell>
        <mxCell id="hUNG6CEszb41kodtaODO-44" style="edgeStyle=orthogonalEdgeStyle;rounded=0;orthogonalLoop=1;jettySize=auto;html=1;entryX=0;entryY=0;entryDx=0;entryDy=0;exitX=1;exitY=0.854;exitDx=0;exitDy=0;exitPerimeter=0;" edge="1" parent="1" source="hUNG6CEszb41kodtaODO-20" target="hUNG6CEszb41kodtaODO-46">
          <mxGeometry relative="1" as="geometry">
            <mxPoint x="1025" y="350.5" as="targetPoint" />
            <mxPoint x="600" y="350" as="sourcePoint" />
            <Array as="points">
              <mxPoint x="595" y="350" />
            </Array>
          </mxGeometry>
        </mxCell>
        <mxCell id="hUNG6CEszb41kodtaODO-45" value="Credentials" style="edgeLabel;html=1;align=center;verticalAlign=middle;resizable=0;points=[];" vertex="1" connectable="0" parent="hUNG6CEszb41kodtaODO-44">
          <mxGeometry x="-0.2611" relative="1" as="geometry">
            <mxPoint x="38" y="1" as="offset" />
          </mxGeometry>
        </mxCell>
        <mxCell id="hUNG6CEszb41kodtaODO-63" style="edgeStyle=orthogonalEdgeStyle;rounded=0;orthogonalLoop=1;jettySize=auto;html=1;exitX=0;exitY=0.25;exitDx=0;exitDy=0;entryX=0.95;entryY=0.435;entryDx=0;entryDy=0;entryPerimeter=0;" edge="1" parent="1" source="hUNG6CEszb41kodtaODO-46" target="hUNG6CEszb41kodtaODO-53">
          <mxGeometry relative="1" as="geometry">
            <mxPoint x="410" y="468" as="targetPoint" />
          </mxGeometry>
        </mxCell>
        <mxCell id="hUNG6CEszb41kodtaODO-64" value="Enter information about points" style="edgeLabel;html=1;align=center;verticalAlign=middle;resizable=0;points=[];labelBorderColor=none;" vertex="1" connectable="0" parent="hUNG6CEszb41kodtaODO-63">
          <mxGeometry x="-0.2789" y="2" relative="1" as="geometry">
            <mxPoint x="-297" as="offset" />
          </mxGeometry>
        </mxCell>
        <mxCell id="hUNG6CEszb41kodtaODO-46" value="" style="rounded=0;whiteSpace=wrap;html=1;" vertex="1" parent="1">
          <mxGeometry x="1045" y="350" width="20" height="470" as="geometry" />
        </mxCell>
        <mxCell id="hUNG6CEszb41kodtaODO-47" value="" style="endArrow=none;dashed=1;html=1;" edge="1" parent="1" target="hUNG6CEszb41kodtaODO-46">
          <mxGeometry width="50" height="50" relative="1" as="geometry">
            <mxPoint x="1055" y="1090" as="sourcePoint" />
            <mxPoint x="1055" y="190" as="targetPoint" />
          </mxGeometry>
        </mxCell>
        <mxCell id="hUNG6CEszb41kodtaODO-25" style="edgeStyle=orthogonalEdgeStyle;rounded=0;orthogonalLoop=1;jettySize=auto;html=1;exitX=1;exitY=0.5;exitDx=0;exitDy=0;entryX=0;entryY=0;entryDx=0;entryDy=0;" edge="1" parent="1" source="hUNG6CEszb41kodtaODO-20" target="hUNG6CEszb41kodtaODO-40">
          <mxGeometry relative="1" as="geometry">
            <mxPoint x="830" y="308" as="targetPoint" />
            <Array as="points">
              <mxPoint x="595" y="300" />
            </Array>
          </mxGeometry>
        </mxCell>
        <mxCell id="hUNG6CEszb41kodtaODO-28" value="Credentials" style="edgeLabel;html=1;align=center;verticalAlign=middle;resizable=0;points=[];" vertex="1" connectable="0" parent="hUNG6CEszb41kodtaODO-25">
          <mxGeometry x="-0.2611" relative="1" as="geometry">
            <mxPoint x="38" y="1" as="offset" />
          </mxGeometry>
        </mxCell>
        <mxCell id="hUNG6CEszb41kodtaODO-57" style="edgeStyle=orthogonalEdgeStyle;rounded=0;orthogonalLoop=1;jettySize=auto;html=1;exitX=0;exitY=0;exitDx=0;exitDy=0;entryX=1;entryY=0;entryDx=0;entryDy=0;" edge="1" parent="1" source="hUNG6CEszb41kodtaODO-48" target="hUNG6CEszb41kodtaODO-53">
          <mxGeometry relative="1" as="geometry">
            <Array as="points">
              <mxPoint x="540" y="380" />
              <mxPoint x="540" y="380" />
            </Array>
          </mxGeometry>
        </mxCell>
        <mxCell id="hUNG6CEszb41kodtaODO-58" value="View ratings" style="edgeLabel;html=1;align=center;verticalAlign=middle;resizable=0;points=[];" vertex="1" connectable="0" parent="hUNG6CEszb41kodtaODO-57">
          <mxGeometry x="0.2056" y="3" relative="1" as="geometry">
            <mxPoint y="-3" as="offset" />
          </mxGeometry>
        </mxCell>
        <mxCell id="hUNG6CEszb41kodtaODO-48" value="" style="rounded=0;whiteSpace=wrap;html=1;" vertex="1" parent="1">
          <mxGeometry x="715" y="380" width="20" height="50" as="geometry" />
        </mxCell>
        <mxCell id="hUNG6CEszb41kodtaODO-49" value="" style="endArrow=none;dashed=1;html=1;" edge="1" parent="1" target="hUNG6CEszb41kodtaODO-48">
          <mxGeometry width="50" height="50" relative="1" as="geometry">
            <mxPoint x="724" y="1090" as="sourcePoint" />
            <mxPoint x="724.969696969697" y="290" as="targetPoint" />
          </mxGeometry>
        </mxCell>
        <mxCell id="hUNG6CEszb41kodtaODO-52" value="" style="rounded=0;whiteSpace=wrap;html=1;" vertex="1" parent="1">
          <mxGeometry x="115" y="380" width="20" height="50" as="geometry" />
        </mxCell>
        <mxCell id="hUNG6CEszb41kodtaODO-54" value="" style="endArrow=none;dashed=1;html=1;entryX=0.5;entryY=1;entryDx=0;entryDy=0;" edge="1" parent="1" target="hUNG6CEszb41kodtaODO-52">
          <mxGeometry width="50" height="50" relative="1" as="geometry">
            <mxPoint x="124.5" y="540" as="sourcePoint" />
            <mxPoint x="125" y="190" as="targetPoint" />
          </mxGeometry>
        </mxCell>
        <mxCell id="hUNG6CEszb41kodtaODO-53" value="" style="rounded=0;whiteSpace=wrap;html=1;" vertex="1" parent="1">
          <mxGeometry x="340" y="380" width="20" height="200" as="geometry" />
        </mxCell>
        <mxCell id="hUNG6CEszb41kodtaODO-55" value="" style="endArrow=none;dashed=1;html=1;entryX=0.5;entryY=1;entryDx=0;entryDy=0;" edge="1" parent="1" target="hUNG6CEszb41kodtaODO-53">
          <mxGeometry width="50" height="50" relative="1" as="geometry">
            <mxPoint x="350" y="540" as="sourcePoint" />
            <mxPoint x="350" y="190" as="targetPoint" />
          </mxGeometry>
        </mxCell>
        <mxCell id="hUNG6CEszb41kodtaODO-51" value="" style="rounded=0;whiteSpace=wrap;html=1;" vertex="1" parent="1">
          <mxGeometry x="-125" y="380" width="20" height="50" as="geometry" />
        </mxCell>
        <mxCell id="hUNG6CEszb41kodtaODO-56" value="" style="endArrow=none;dashed=1;html=1;entryX=0.5;entryY=1;entryDx=0;entryDy=0;" edge="1" parent="1" target="hUNG6CEszb41kodtaODO-51">
          <mxGeometry width="50" height="50" relative="1" as="geometry">
            <mxPoint x="-115" y="530" as="sourcePoint" />
            <mxPoint x="-115" y="190" as="targetPoint" />
          </mxGeometry>
        </mxCell>
        <mxCell id="hUNG6CEszb41kodtaODO-61" style="edgeStyle=orthogonalEdgeStyle;rounded=0;orthogonalLoop=1;jettySize=auto;html=1;exitX=1;exitY=0.25;exitDx=0;exitDy=0;entryX=-0.1;entryY=0.143;entryDx=0;entryDy=0;entryPerimeter=0;" edge="1" parent="1" source="hUNG6CEszb41kodtaODO-40" target="hUNG6CEszb41kodtaODO-46">
          <mxGeometry relative="1" as="geometry" />
        </mxCell>
        <mxCell id="hUNG6CEszb41kodtaODO-62" value="Show QR-code" style="edgeLabel;html=1;align=center;verticalAlign=middle;resizable=0;points=[];" vertex="1" connectable="0" parent="hUNG6CEszb41kodtaODO-61">
          <mxGeometry x="-0.7378" relative="1" as="geometry">
            <mxPoint x="19.26" y="1" as="offset" />
          </mxGeometry>
        </mxCell>
      </root>
    </mxGraphModel>
  </diagram>
</mxfile>
